<svg width="32" height="32" viewBox="0 0 32 32" fill="none" xmlns="http://www.w3.org/2000/svg">
<g filter="url(#filter0_d_5661_1669)">
<g clip-path="url(#clip0_5661_1669)">
<path d="M16 2C10.48 2 6 6.48 6 12C6 17.52 10.48 22 16 22C21.52 22 26 17.52 26 12C26 6.48 21.52 2 16 2ZM16 20C11.58 20 8 16.42 8 12C8 7.58 11.58 4 16 4C20.42 4 24 7.58 24 12C24 16.42 20.42 20 16 20Z" fill="black"/>
</g>
</g>
<defs>
<filter id="filter0_d_5661_1669" x="0" y="0" width="32" height="32" filterUnits="userSpaceOnUse" color-interpolation-filters="sRGB">
<feFlood flood-opacity="0" result="BackgroundImageFix"/>
<feColorMatrix in="SourceAlpha" type="matrix" values="0 0 0 0 0 0 0 0 0 0 0 0 0 0 0 0 0 0 127 0" result="hardAlpha"/>
<feOffset dy="4"/>
<feGaussianBlur stdDeviation="2"/>
<feComposite in2="hardAlpha" operator="out"/>
<feColorMatrix type="matrix" values="0 0 0 0 0 0 0 0 0 0 0 0 0 0 0 0 0 0 0.25 0"/>
<feBlend mode="normal" in2="BackgroundImageFix" result="effect1_dropShadow_5661_1669"/>
<feBlend mode="normal" in="SourceGraphic" in2="effect1_dropShadow_5661_1669" result="shape"/>
</filter>
<clipPath id="clip0_5661_1669">
<rect width="24" height="24" fill="white" transform="translate(4)"/>
</clipPath>
</defs>
</svg>
